/* XPM */
static char * okeykoclient_xpm[] = {
"32 32 324 2",
"  	c None",
". 	c #D7EEFE",
"+ 	c #C6E7FE",
"@ 	c #D6E6F2",
"# 	c #E7EFF6",
"$ 	c #DCF1FE",
"% 	c #CCEAFE",
"& 	c #7FCAFD",
"* 	c #20A2FB",
"= 	c #3EADFB",
"- 	c #ECF4F9",
"; 	c #54B7FC",
"> 	c #D9EFFE",
", 	c #D1ECFE",
"' 	c #A0D7FD",
") 	c #38ACFC",
"! 	c #0998FB",
"~ 	c #199FFB",
"{ 	c #E0EDF5",
"] 	c #5DB8F6",
"^ 	c #71C4FD",
"/ 	c #D5EDFE",
"( 	c #B8E1FE",
"_ 	c #55B8FC",
": 	c #0D9AFB",
"< 	c #B2D7F0",
"[ 	c #99CCF0",
"} 	c #169DFB",
"| 	c #D5EEFE",
"1 	c #C5E7FE",
"2 	c #75C5FD",
"3 	c #1A9FFB",
"4 	c #75C0F2",
"5 	c #CEE4F3",
"6 	c #109BFB",
"7 	c #C3E6FE",
"8 	c #DDF1FE",
"9 	c #5BBAFC",
"0 	c #3DADFB",
"a 	c #EBF3F9",
"b 	c #2BA6FC",
"c 	c #A5D9FE",
"d 	c #F0F6FB",
"e 	c #C2DBED",
"f 	c #70BDF3",
"g 	c #21A2FB",
"h 	c #189EFB",
"i 	c #E0EDF6",
"j 	c #5AB7F8",
"k 	c #6BC1FC",
"l 	c #D0EBFE",
"m 	c #0F9AFB",
"n 	c #4FB5FB",
"o 	c #A1CBE9",
"p 	c #EBF4F9",
"q 	c #C4DCEE",
"r 	c #72BEF2",
"s 	c #22A3FB",
"t 	c #B1D7F1",
"u 	c #96CCF1",
"v 	c #DCF3F3",
"w 	c #E9FCD6",
"x 	c #EBFED5",
"y 	c #EBFED7",
"z 	c #ECFED8",
"A 	c #ECFEDB",
"B 	c #EDFEDC",
"C 	c #EEFEDE",
"D 	c #F0FEDF",
"E 	c #F9FEF1",
"F 	c #BFE4FE",
"G 	c #0E9AFB",
"H 	c #4DB4FB",
"I 	c #9FCBE9",
"J 	c #EAF3F9",
"K 	c #C6DDEE",
"L 	c #A6D0EE",
"M 	c #CCE3F3",
"N 	c #D1F0E6",
"O 	c #B0FA5E",
"P 	c #B3FA64",
"Q 	c #B6FB6A",
"R 	c #B9FB70",
"S 	c #BCFB76",
"T 	c #BFFB7C",
"U 	c #C2FB82",
"V 	c #C5FC88",
"W 	c #E3FDC6",
"X 	c #BEE4FE",
"Y 	c #4CB3FB",
"Z 	c #B0D8F4",
"` 	c #29A5FC",
" .	c #AFFA5A",
"..	c #B1FA60",
"+.	c #B4FB66",
"@.	c #B7FB6C",
"#.	c #BAFB72",
"$.	c #BDFB78",
"%.	c #C0FB7E",
"&.	c #C3FB84",
"*.	c #E2FDC4",
"=.	c #D1F0E5",
"-.	c #ADFA57",
";.	c #B0FA5D",
">.	c #B3FA63",
",.	c #B6FB69",
"'.	c #B9FB6F",
").	c #BCFB75",
"!.	c #BFFB7B",
"~.	c #C1FB81",
"{.	c #E1FDC3",
"].	c #0C99FB",
"^.	c #ABFA54",
"/.	c #AEFA5A",
"(.	c #E1FCC1",
"_.	c #33AAFC",
":.	c #D0F0E5",
"<.	c #AAFA51",
"[.	c #BBFB75",
"}.	c #BEFB7B",
"|.	c #E0FCC0",
"1.	c #69C0FD",
"2.	c #D4F1E4",
"3.	c #A8FA4E",
"4.	c #DFFCBF",
"5.	c #A8DBFE",
"6.	c #9DD6FE",
"7.	c #C1E4FE",
"8.	c #BDE3FE",
"9.	c #C1E5FE",
"0.	c #C8E8FF",
"a.	c #CAE9FF",
"b.	c #D7EFFF",
"c.	c #129CFB",
"d.	c #EAFBE3",
"e.	c #A7FA4A",
"f.	c #AAFA50",
"g.	c #ADFA56",
"h.	c #B0FA5C",
"i.	c #B3FA62",
"j.	c #B5FB68",
"k.	c #B8FB6E",
"l.	c #BBFB74",
"m.	c #DEFCBD",
"n.	c #C7E7FE",
"o.	c #A9DAFD",
"p.	c #57B9FC",
"q.	c #50B6FC",
"r.	c #59BAFC",
"s.	c #62BEFC",
"t.	c #75C5FC",
"u.	c #7EC9FD",
"v.	c #87CDFD",
"w.	c #A8DBFD",
"x.	c #B9E1FE",
"y.	c #D0ECFE",
"z.	c #F4FFE9",
"A.	c #C7FC8D",
"B.	c #C9FC91",
"C.	c #CBFC95",
"D.	c #CCFC98",
"E.	c #CEFC9B",
"F.	c #D0FCA0",
"G.	c #D2FCA4",
"H.	c #D4FCA8",
"I.	c #D6EEFE",
"J.	c #119BFB",
"K.	c #A8DAFD",
"L.	c #53B7FC",
"M.	c #4BB4FC",
"N.	c #54B8FC",
"O.	c #5DBBFC",
"P.	c #66BFFC",
"Q.	c #70C3FC",
"R.	c #79C7FC",
"S.	c #82CBFD",
"T.	c #A4DAFD",
"U.	c #F2FAFF",
"V.	c #E1FDC1",
"W.	c #C7FC8C",
"X.	c #BEFB7A",
"Y.	c #61BDFC",
"Z.	c #4FB6FC",
"`.	c #46B2FC",
" +	c #58B9FC",
".+	c #62BDFC",
"++	c #74C5FC",
"@+	c #7DC9FD",
"#+	c #A1D8FD",
"$+	c #F3FAFF",
"%+	c #C3FB85",
"&+	c #B5FA68",
"*+	c #BCFB77",
"=+	c #D4FCA7",
"-+	c #179EFB",
";+	c #A7DAFD",
">+	c #41B0FC",
",+	c #4AB3FC",
"'+	c #6FC3FC",
")+	c #78C7FC",
"!+	c #9DD6FD",
"~+	c #F1FAFF",
"{+	c #B7FA6A",
"]+	c #D0FC9F",
"^+	c #CEEBFE",
"/+	c #65BEFC",
"(+	c #D7EFFE",
"_+	c #3CAEFC",
":+	c #45B1FC",
"<+	c #4FB5FC",
"[+	c #6AC1FC",
"}+	c #9AD5FD",
"|+	c #EBFAF0",
"1+	c #B5FB67",
"2+	c #ADFA58",
"3+	c #9EF937",
"4+	c #9DF936",
"5+	c #A0F93C",
"6+	c #A3F943",
"7+	c #A6FA49",
"8+	c #A9FA4F",
"9+	c #ACFA55",
"0+	c #AFFA5C",
"a+	c #B2FA62",
"b+	c #B8FB6F",
"c+	c #CDFC9A",
"d+	c #E2F3FE",
"e+	c #42B0FB",
"f+	c #37ABFC",
"g+	c #40AFFC",
"h+	c #5CBBFC",
"i+	c #65BFFC",
"j+	c #96D3FD",
"k+	c #E6F9E2",
"l+	c #9CF934",
"m+	c #9DF935",
"n+	c #A0F93B",
"o+	c #A3F942",
"p+	c #A6FA48",
"q+	c #A9FA4E",
"r+	c #AFFA5B",
"s+	c #B2FA61",
"t+	c #CEFC9A",
"u+	c #3DAEFB",
"v+	c #32A9FC",
"w+	c #3CADFC",
"x+	c #4EB5FC",
"y+	c #92D2FD",
"z+	c #EBF9EE",
"A+	c #9FF93A",
"B+	c #A2F941",
"C+	c #A5FA47",
"D+	c #A8FA4D",
"E+	c #C2FC83",
"F+	c #E2F2FE",
"G+	c #85CCFD",
"H+	c #7DC8FC",
"I+	c #83CBFD",
"J+	c #89CDFD",
"K+	c #8ECFFD",
"L+	c #94D2FD",
"M+	c #99D4FD",
"N+	c #B9E2FD",
"O+	c #F0FAFB",
"P+	c #A8F856",
"Q+	c #AAF85C",
"R+	c #A2F940",
"S+	c #A5FA46",
"T+	c #B2FB61",
"U+	c #DBF0FE",
"V+	c #BDE3FD",
"W+	c #B6E5E3",
"X+	c #B3DFFC",
"Y+	c #BBF0B2",
"Z+	c #A1F93E",
"`+	c #B4FA65",
" @	c #A2D8FE",
".@	c #93D1FD",
"+@	c #8DCFFD",
"@@	c #9FD6FD",
"#@	c #C4E9ED",
"$@	c #80CAFD",
"%@	c #78C7FD",
"&@	c #63BDFC",
"*@	c #72C4FD",
"=@	c #7BC8FD",
"-@	c #84CBFD",
";@	c #97D3FD",
">@	c #BCE3FD",
",@	c #6FC2FC",
"'@	c #5FBCFD",
")@	c #3DAEFC",
"!@	c #46B1FC",
"~@	c #6AC0FD",
"{@	c #73C4FD",
"]@	c #7CC8FD",
"^@	c #8ED0FD",
"/@	c #ACDCFD",
"(@	c #34AAFC",
"_@	c #3EAEFC",
":@	c #47B2FC",
"<@	c #50B5FC",
"[@	c #59B9FC",
"}@	c #6BC1FD",
"|@	c #74C4FD",
"1@	c #7DC8FD",
"2@	c #86CCFD",
"3@	c #8FD0FD",
"4@	c #23A3FB",
"5@	c #2CA7FC",
"6@	c #35AAFC",
"7@	c #6CC1FD",
"8@	c #43B0FC",
"9@	c #1B9FFB",
"0@	c #24A3FB",
"a@	c #2DA7FC",
"b@	c #36ABFC",
"c@	c #3FAFFC",
"d@	c #52B6FC",
"e@	c #89CEFD",
"f@	c #1EA1FB",
"g@	c #4DB4FC",
"h@	c #65BEFD",
"i@	c #60BCFC",
"                          . + @ #                               ",
"                    $ % & * = - ; >                             ",
"                , ' ) ! ! ~ { ] ! ^                             ",
"          / ( _ : ! ! ! ! < [ ! ! } |                           ",
"      1 2 3 ! ! ! ! ! ! 4 5 6 ! ! ! 7                           ",
"  8 9 ! ! ! ! ! ! ! ! 0 a b ! ! ! ! c                           ",
"  d e f g ! ! ! ! ! h i j ! ! ! ! ! k                           ",
"l m n o p q r s ! ! t u ! ! ! ! ! ! v w x y z A B C D E         ",
"F ! ! ! G H I J K L M m ! ! ! ! ! ! N O P Q R S T U V W         ",
"X ! ! ! ! ! ! : Y Z ` ! ! ! ! ! ! ! N  ...+.@.#.$.%.&.*.        ",
"1 ! ! ! ! ! ! ! ! ! ! ! ! ! ! ! ! ! =.-.;.>.,.'.).!.~.{.        ",
"/ ].! ! ! ! ! ! ! ! ! ! ! ! ! ! ! ! =.^./...+.@.#.$.%.(.        ",
"8 _.! ! ! ! ! ! ! ! ! ! ! ! ! ! ! ! :.<.-.;.>.,.'.[.}.|.        ",
"  1.! ! ! ! G h h h h h h h h h ].! 2.3.^./...+.@.#.$.4.        ",
"  5.! ! ! ! 6.7.8.F 9.7 + 0.a.b.& c.d.e.f.g.h.i.j.k.l.m.        ",
"  n.! ! ! ! o.p.q.r.s.k t.u.v.w.x.y.z.A.B.C.D.E.F.G.H.y         ",
"  I.J.! ! ! K.L.M.N.O.P.Q.R.S.T.U.                    V.C.W.X.  ",
"    Y.! ! ! K.Z.`.Z. +.+k ++@+#+$+              %+!.&+P Q R *+=+",
"    , -+! ! ;+M.>+,+L.O.P.'+)+!+~+        {+h.e.f.g.;.>.,.'.S ]+",
"      ^+/+1.(+`._+:+<+ +Y.[+++}+|+1+2+3+4+5+6+7+8+9+0+a+j.b+[.c+",
"            d+e+f+g+,+L.h+i+'+j+k+l+l+l+m+n+o+p+q+9+r+s+1+k.l.t+",
"            d+u+v+w+:+x+p.Y.[+y+z+l+l+l+l+A+B+C+D+^./.a+E+C.    ",
"            F+G+H+I+J+K+L+M+' N+O+6+P+Q+l+A+R+S+T+%.C.          ",
"                              U+V+W+X+Y+Z+`+X.                  ",
"                         @M+.@+@j+@@K.#@                        ",
"                  $@%@&@1.*@=@-@K+;@' >@                        ",
"          ,@'@:+)@!@<+ +Y.~@{@]@G+^@;@/@                        ",
"          g s b (@_@:@<@[@.+}@|@1@2@3@}+                        ",
"          w+3 4@5@6@_@:@q.[@&@7@G+}+                            ",
"          8@c.9@0@a@b@c@d@2 e@                                  ",
"          x+! c.f@g@h@                                          ",
"          *@`.i@                                                "};
